<mxfile host="Electron" agent="Mozilla/5.0 (Windows NT 10.0; Win64; x64) AppleWebKit/537.36 (KHTML, like Gecko) draw.io/27.0.5 Chrome/134.0.6998.205 Electron/35.3.0 Safari/537.36" version="27.0.5">
  <diagram name="Page-1" id="pvnXYNrPfCRt9F6SSc_U">
    <mxGraphModel dx="786" dy="1664" grid="1" gridSize="10" guides="1" tooltips="1" connect="1" arrows="1" fold="1" page="1" pageScale="1" pageWidth="850" pageHeight="1100" math="0" shadow="0">
      <root>
        <mxCell id="0" />
        <mxCell id="1" parent="0" />
        <mxCell id="imJbliIBKWfLPpD2nD6v-1" value="Data Mart&lt;span style=&quot;font-weight: normal;&quot;&gt;&lt;font style=&quot;font-size: 19px;&quot;&gt;(start schema)&lt;/font&gt;&lt;/span&gt;" style="text;html=1;align=left;verticalAlign=middle;whiteSpace=wrap;rounded=0;fontStyle=1;fontSize=21;" vertex="1" parent="1">
          <mxGeometry x="35" y="-550" width="390" height="60" as="geometry" />
        </mxCell>
        <mxCell id="imJbliIBKWfLPpD2nD6v-2" value="gold.dim_customer" style="shape=table;startSize=40;container=1;collapsible=1;childLayout=tableLayout;fixedRows=1;rowLines=0;fontStyle=1;align=center;resizeLast=1;html=1;rounded=1;fillColor=#fff2cc;strokeColor=#d6b656;fontSize=17;" vertex="1" parent="1">
          <mxGeometry x="35" y="-470" width="220" height="425" as="geometry" />
        </mxCell>
        <mxCell id="imJbliIBKWfLPpD2nD6v-3" value="" style="shape=tableRow;horizontal=0;startSize=0;swimlaneHead=0;swimlaneBody=0;fillColor=none;collapsible=0;dropTarget=0;points=[[0,0.5],[1,0.5]];portConstraint=eastwest;top=0;left=0;right=0;bottom=1;" vertex="1" parent="imJbliIBKWfLPpD2nD6v-2">
          <mxGeometry y="40" width="220" height="30" as="geometry" />
        </mxCell>
        <mxCell id="imJbliIBKWfLPpD2nD6v-4" value="PK" style="shape=partialRectangle;connectable=0;fillColor=none;top=0;left=0;bottom=0;right=0;fontStyle=1;overflow=hidden;whiteSpace=wrap;html=1;" vertex="1" parent="imJbliIBKWfLPpD2nD6v-3">
          <mxGeometry width="30" height="30" as="geometry">
            <mxRectangle width="30" height="30" as="alternateBounds" />
          </mxGeometry>
        </mxCell>
        <mxCell id="imJbliIBKWfLPpD2nD6v-5" value="customer_key" style="shape=partialRectangle;connectable=0;fillColor=none;top=0;left=0;bottom=0;right=0;align=left;spacingLeft=6;fontStyle=5;overflow=hidden;whiteSpace=wrap;html=1;" vertex="1" parent="imJbliIBKWfLPpD2nD6v-3">
          <mxGeometry x="30" width="190" height="30" as="geometry">
            <mxRectangle width="190" height="30" as="alternateBounds" />
          </mxGeometry>
        </mxCell>
        <mxCell id="imJbliIBKWfLPpD2nD6v-6" value="" style="shape=tableRow;horizontal=0;startSize=0;swimlaneHead=0;swimlaneBody=0;fillColor=none;collapsible=0;dropTarget=0;points=[[0,0.5],[1,0.5]];portConstraint=eastwest;top=0;left=0;right=0;bottom=0;fontSize=18;" vertex="1" parent="imJbliIBKWfLPpD2nD6v-2">
          <mxGeometry y="70" width="220" height="39" as="geometry" />
        </mxCell>
        <mxCell id="imJbliIBKWfLPpD2nD6v-7" value="" style="shape=partialRectangle;connectable=0;fillColor=none;top=0;left=0;bottom=0;right=0;editable=1;overflow=hidden;whiteSpace=wrap;html=1;fontSize=18;" vertex="1" parent="imJbliIBKWfLPpD2nD6v-6">
          <mxGeometry width="30" height="39" as="geometry">
            <mxRectangle width="30" height="39" as="alternateBounds" />
          </mxGeometry>
        </mxCell>
        <mxCell id="imJbliIBKWfLPpD2nD6v-8" value="customer_id" style="shape=partialRectangle;connectable=0;fillColor=none;top=0;left=0;bottom=0;right=0;align=left;spacingLeft=6;overflow=hidden;whiteSpace=wrap;html=1;fontSize=18;" vertex="1" parent="imJbliIBKWfLPpD2nD6v-6">
          <mxGeometry x="30" width="190" height="39" as="geometry">
            <mxRectangle width="190" height="39" as="alternateBounds" />
          </mxGeometry>
        </mxCell>
        <mxCell id="imJbliIBKWfLPpD2nD6v-9" value="" style="shape=tableRow;horizontal=0;startSize=0;swimlaneHead=0;swimlaneBody=0;fillColor=none;collapsible=0;dropTarget=0;points=[[0,0.5],[1,0.5]];portConstraint=eastwest;top=0;left=0;right=0;bottom=0;fontSize=18;" vertex="1" parent="imJbliIBKWfLPpD2nD6v-2">
          <mxGeometry y="109" width="220" height="39" as="geometry" />
        </mxCell>
        <mxCell id="imJbliIBKWfLPpD2nD6v-10" value="" style="shape=partialRectangle;connectable=0;fillColor=none;top=0;left=0;bottom=0;right=0;editable=1;overflow=hidden;whiteSpace=wrap;html=1;fontSize=18;" vertex="1" parent="imJbliIBKWfLPpD2nD6v-9">
          <mxGeometry width="30" height="39" as="geometry">
            <mxRectangle width="30" height="39" as="alternateBounds" />
          </mxGeometry>
        </mxCell>
        <mxCell id="imJbliIBKWfLPpD2nD6v-11" value="customer_number" style="shape=partialRectangle;connectable=0;fillColor=none;top=0;left=0;bottom=0;right=0;align=left;spacingLeft=6;overflow=hidden;whiteSpace=wrap;html=1;fontSize=18;" vertex="1" parent="imJbliIBKWfLPpD2nD6v-9">
          <mxGeometry x="30" width="190" height="39" as="geometry">
            <mxRectangle width="190" height="39" as="alternateBounds" />
          </mxGeometry>
        </mxCell>
        <mxCell id="imJbliIBKWfLPpD2nD6v-12" value="" style="shape=tableRow;horizontal=0;startSize=0;swimlaneHead=0;swimlaneBody=0;fillColor=none;collapsible=0;dropTarget=0;points=[[0,0.5],[1,0.5]];portConstraint=eastwest;top=0;left=0;right=0;bottom=0;fontSize=18;" vertex="1" parent="imJbliIBKWfLPpD2nD6v-2">
          <mxGeometry y="148" width="220" height="39" as="geometry" />
        </mxCell>
        <mxCell id="imJbliIBKWfLPpD2nD6v-13" value="" style="shape=partialRectangle;connectable=0;fillColor=none;top=0;left=0;bottom=0;right=0;editable=1;overflow=hidden;whiteSpace=wrap;html=1;fontSize=18;" vertex="1" parent="imJbliIBKWfLPpD2nD6v-12">
          <mxGeometry width="30" height="39" as="geometry">
            <mxRectangle width="30" height="39" as="alternateBounds" />
          </mxGeometry>
        </mxCell>
        <mxCell id="imJbliIBKWfLPpD2nD6v-14" value="first_name" style="shape=partialRectangle;connectable=0;fillColor=none;top=0;left=0;bottom=0;right=0;align=left;spacingLeft=6;overflow=hidden;whiteSpace=wrap;html=1;fontSize=18;" vertex="1" parent="imJbliIBKWfLPpD2nD6v-12">
          <mxGeometry x="30" width="190" height="39" as="geometry">
            <mxRectangle width="190" height="39" as="alternateBounds" />
          </mxGeometry>
        </mxCell>
        <mxCell id="imJbliIBKWfLPpD2nD6v-15" style="shape=tableRow;horizontal=0;startSize=0;swimlaneHead=0;swimlaneBody=0;fillColor=none;collapsible=0;dropTarget=0;points=[[0,0.5],[1,0.5]];portConstraint=eastwest;top=0;left=0;right=0;bottom=0;fontSize=18;" vertex="1" parent="imJbliIBKWfLPpD2nD6v-2">
          <mxGeometry y="187" width="220" height="39" as="geometry" />
        </mxCell>
        <mxCell id="imJbliIBKWfLPpD2nD6v-16" style="shape=partialRectangle;connectable=0;fillColor=none;top=0;left=0;bottom=0;right=0;editable=1;overflow=hidden;whiteSpace=wrap;html=1;fontSize=18;" vertex="1" parent="imJbliIBKWfLPpD2nD6v-15">
          <mxGeometry width="30" height="39" as="geometry">
            <mxRectangle width="30" height="39" as="alternateBounds" />
          </mxGeometry>
        </mxCell>
        <mxCell id="imJbliIBKWfLPpD2nD6v-17" value="last__name" style="shape=partialRectangle;connectable=0;fillColor=none;top=0;left=0;bottom=0;right=0;align=left;spacingLeft=6;overflow=hidden;whiteSpace=wrap;html=1;fontSize=18;" vertex="1" parent="imJbliIBKWfLPpD2nD6v-15">
          <mxGeometry x="30" width="190" height="39" as="geometry">
            <mxRectangle width="190" height="39" as="alternateBounds" />
          </mxGeometry>
        </mxCell>
        <mxCell id="imJbliIBKWfLPpD2nD6v-21" style="shape=tableRow;horizontal=0;startSize=0;swimlaneHead=0;swimlaneBody=0;fillColor=none;collapsible=0;dropTarget=0;points=[[0,0.5],[1,0.5]];portConstraint=eastwest;top=0;left=0;right=0;bottom=0;fontSize=18;" vertex="1" parent="imJbliIBKWfLPpD2nD6v-2">
          <mxGeometry y="226" width="220" height="39" as="geometry" />
        </mxCell>
        <mxCell id="imJbliIBKWfLPpD2nD6v-22" style="shape=partialRectangle;connectable=0;fillColor=none;top=0;left=0;bottom=0;right=0;editable=1;overflow=hidden;whiteSpace=wrap;html=1;fontSize=18;" vertex="1" parent="imJbliIBKWfLPpD2nD6v-21">
          <mxGeometry width="30" height="39" as="geometry">
            <mxRectangle width="30" height="39" as="alternateBounds" />
          </mxGeometry>
        </mxCell>
        <mxCell id="imJbliIBKWfLPpD2nD6v-23" value="country" style="shape=partialRectangle;connectable=0;fillColor=none;top=0;left=0;bottom=0;right=0;align=left;spacingLeft=6;overflow=hidden;whiteSpace=wrap;html=1;fontSize=18;" vertex="1" parent="imJbliIBKWfLPpD2nD6v-21">
          <mxGeometry x="30" width="190" height="39" as="geometry">
            <mxRectangle width="190" height="39" as="alternateBounds" />
          </mxGeometry>
        </mxCell>
        <mxCell id="imJbliIBKWfLPpD2nD6v-24" style="shape=tableRow;horizontal=0;startSize=0;swimlaneHead=0;swimlaneBody=0;fillColor=none;collapsible=0;dropTarget=0;points=[[0,0.5],[1,0.5]];portConstraint=eastwest;top=0;left=0;right=0;bottom=0;fontSize=18;" vertex="1" parent="imJbliIBKWfLPpD2nD6v-2">
          <mxGeometry y="265" width="220" height="39" as="geometry" />
        </mxCell>
        <mxCell id="imJbliIBKWfLPpD2nD6v-25" style="shape=partialRectangle;connectable=0;fillColor=none;top=0;left=0;bottom=0;right=0;editable=1;overflow=hidden;whiteSpace=wrap;html=1;fontSize=18;" vertex="1" parent="imJbliIBKWfLPpD2nD6v-24">
          <mxGeometry width="30" height="39" as="geometry">
            <mxRectangle width="30" height="39" as="alternateBounds" />
          </mxGeometry>
        </mxCell>
        <mxCell id="imJbliIBKWfLPpD2nD6v-26" value="marital_status" style="shape=partialRectangle;connectable=0;fillColor=none;top=0;left=0;bottom=0;right=0;align=left;spacingLeft=6;overflow=hidden;whiteSpace=wrap;html=1;fontSize=18;" vertex="1" parent="imJbliIBKWfLPpD2nD6v-24">
          <mxGeometry x="30" width="190" height="39" as="geometry">
            <mxRectangle width="190" height="39" as="alternateBounds" />
          </mxGeometry>
        </mxCell>
        <mxCell id="imJbliIBKWfLPpD2nD6v-27" style="shape=tableRow;horizontal=0;startSize=0;swimlaneHead=0;swimlaneBody=0;fillColor=none;collapsible=0;dropTarget=0;points=[[0,0.5],[1,0.5]];portConstraint=eastwest;top=0;left=0;right=0;bottom=0;fontSize=18;" vertex="1" parent="imJbliIBKWfLPpD2nD6v-2">
          <mxGeometry y="304" width="220" height="39" as="geometry" />
        </mxCell>
        <mxCell id="imJbliIBKWfLPpD2nD6v-28" style="shape=partialRectangle;connectable=0;fillColor=none;top=0;left=0;bottom=0;right=0;editable=1;overflow=hidden;whiteSpace=wrap;html=1;fontSize=18;" vertex="1" parent="imJbliIBKWfLPpD2nD6v-27">
          <mxGeometry width="30" height="39" as="geometry">
            <mxRectangle width="30" height="39" as="alternateBounds" />
          </mxGeometry>
        </mxCell>
        <mxCell id="imJbliIBKWfLPpD2nD6v-29" value="gender" style="shape=partialRectangle;connectable=0;fillColor=none;top=0;left=0;bottom=0;right=0;align=left;spacingLeft=6;overflow=hidden;whiteSpace=wrap;html=1;fontSize=18;" vertex="1" parent="imJbliIBKWfLPpD2nD6v-27">
          <mxGeometry x="30" width="190" height="39" as="geometry">
            <mxRectangle width="190" height="39" as="alternateBounds" />
          </mxGeometry>
        </mxCell>
        <mxCell id="imJbliIBKWfLPpD2nD6v-30" style="shape=tableRow;horizontal=0;startSize=0;swimlaneHead=0;swimlaneBody=0;fillColor=none;collapsible=0;dropTarget=0;points=[[0,0.5],[1,0.5]];portConstraint=eastwest;top=0;left=0;right=0;bottom=0;fontSize=18;" vertex="1" parent="imJbliIBKWfLPpD2nD6v-2">
          <mxGeometry y="343" width="220" height="39" as="geometry" />
        </mxCell>
        <mxCell id="imJbliIBKWfLPpD2nD6v-31" style="shape=partialRectangle;connectable=0;fillColor=none;top=0;left=0;bottom=0;right=0;editable=1;overflow=hidden;whiteSpace=wrap;html=1;fontSize=18;" vertex="1" parent="imJbliIBKWfLPpD2nD6v-30">
          <mxGeometry width="30" height="39" as="geometry">
            <mxRectangle width="30" height="39" as="alternateBounds" />
          </mxGeometry>
        </mxCell>
        <mxCell id="imJbliIBKWfLPpD2nD6v-32" value="birthdate" style="shape=partialRectangle;connectable=0;fillColor=none;top=0;left=0;bottom=0;right=0;align=left;spacingLeft=6;overflow=hidden;whiteSpace=wrap;html=1;fontSize=18;" vertex="1" parent="imJbliIBKWfLPpD2nD6v-30">
          <mxGeometry x="30" width="190" height="39" as="geometry">
            <mxRectangle width="190" height="39" as="alternateBounds" />
          </mxGeometry>
        </mxCell>
        <mxCell id="imJbliIBKWfLPpD2nD6v-33" style="shape=tableRow;horizontal=0;startSize=0;swimlaneHead=0;swimlaneBody=0;fillColor=none;collapsible=0;dropTarget=0;points=[[0,0.5],[1,0.5]];portConstraint=eastwest;top=0;left=0;right=0;bottom=0;fontSize=18;" vertex="1" parent="imJbliIBKWfLPpD2nD6v-2">
          <mxGeometry y="382" width="220" height="39" as="geometry" />
        </mxCell>
        <mxCell id="imJbliIBKWfLPpD2nD6v-34" style="shape=partialRectangle;connectable=0;fillColor=none;top=0;left=0;bottom=0;right=0;editable=1;overflow=hidden;whiteSpace=wrap;html=1;fontSize=18;" vertex="1" parent="imJbliIBKWfLPpD2nD6v-33">
          <mxGeometry width="30" height="39" as="geometry">
            <mxRectangle width="30" height="39" as="alternateBounds" />
          </mxGeometry>
        </mxCell>
        <mxCell id="imJbliIBKWfLPpD2nD6v-35" value="created_date" style="shape=partialRectangle;connectable=0;fillColor=none;top=0;left=0;bottom=0;right=0;align=left;spacingLeft=6;overflow=hidden;whiteSpace=wrap;html=1;fontSize=18;" vertex="1" parent="imJbliIBKWfLPpD2nD6v-33">
          <mxGeometry x="30" width="190" height="39" as="geometry">
            <mxRectangle width="190" height="39" as="alternateBounds" />
          </mxGeometry>
        </mxCell>
        <mxCell id="imJbliIBKWfLPpD2nD6v-36" value="gold.dim_products" style="shape=table;startSize=40;container=1;collapsible=1;childLayout=tableLayout;fixedRows=1;rowLines=0;fontStyle=1;align=center;resizeLast=1;html=1;rounded=1;fillColor=#fff2cc;strokeColor=#d6b656;fontSize=17;" vertex="1" parent="1">
          <mxGeometry x="620" y="-550" width="220" height="530" as="geometry" />
        </mxCell>
        <mxCell id="imJbliIBKWfLPpD2nD6v-37" value="" style="shape=tableRow;horizontal=0;startSize=30;swimlaneHead=0;swimlaneBody=0;fillColor=none;collapsible=0;dropTarget=0;points=[[0,0.5],[1,0.5]];portConstraint=eastwest;top=0;left=0;right=0;bottom=1;" vertex="1" parent="imJbliIBKWfLPpD2nD6v-36">
          <mxGeometry y="40" width="220" height="30" as="geometry" />
        </mxCell>
        <mxCell id="imJbliIBKWfLPpD2nD6v-38" value="PK" style="shape=partialRectangle;connectable=0;fillColor=none;top=0;left=0;bottom=0;right=0;fontStyle=1;overflow=hidden;whiteSpace=wrap;html=1;" vertex="1" parent="imJbliIBKWfLPpD2nD6v-37">
          <mxGeometry x="30" width="30" height="30" as="geometry">
            <mxRectangle width="30" height="30" as="alternateBounds" />
          </mxGeometry>
        </mxCell>
        <mxCell id="imJbliIBKWfLPpD2nD6v-39" value="product_key" style="shape=partialRectangle;connectable=0;fillColor=none;top=0;left=0;bottom=0;right=0;align=left;spacingLeft=6;fontStyle=5;overflow=hidden;whiteSpace=wrap;html=1;" vertex="1" parent="imJbliIBKWfLPpD2nD6v-37">
          <mxGeometry x="60" width="160" height="30" as="geometry">
            <mxRectangle width="160" height="30" as="alternateBounds" />
          </mxGeometry>
        </mxCell>
        <mxCell id="imJbliIBKWfLPpD2nD6v-40" value="" style="shape=tableRow;horizontal=0;startSize=30;swimlaneHead=0;swimlaneBody=0;fillColor=none;collapsible=0;dropTarget=0;points=[[0,0.5],[1,0.5]];portConstraint=eastwest;top=0;left=0;right=0;bottom=0;fontSize=18;" vertex="1" parent="imJbliIBKWfLPpD2nD6v-36">
          <mxGeometry y="70" width="220" height="39" as="geometry" />
        </mxCell>
        <mxCell id="imJbliIBKWfLPpD2nD6v-41" value="" style="shape=partialRectangle;connectable=0;fillColor=none;top=0;left=0;bottom=0;right=0;editable=1;overflow=hidden;whiteSpace=wrap;html=1;fontSize=18;" vertex="1" parent="imJbliIBKWfLPpD2nD6v-40">
          <mxGeometry x="30" width="30" height="39" as="geometry">
            <mxRectangle width="30" height="39" as="alternateBounds" />
          </mxGeometry>
        </mxCell>
        <mxCell id="imJbliIBKWfLPpD2nD6v-42" value="customer_id" style="shape=partialRectangle;connectable=0;fillColor=none;top=0;left=0;bottom=0;right=0;align=left;spacingLeft=6;overflow=hidden;whiteSpace=wrap;html=1;fontSize=18;" vertex="1" parent="imJbliIBKWfLPpD2nD6v-40">
          <mxGeometry x="60" width="160" height="39" as="geometry">
            <mxRectangle width="160" height="39" as="alternateBounds" />
          </mxGeometry>
        </mxCell>
        <mxCell id="imJbliIBKWfLPpD2nD6v-43" value="" style="shape=tableRow;horizontal=0;startSize=30;swimlaneHead=0;swimlaneBody=0;fillColor=none;collapsible=0;dropTarget=0;points=[[0,0.5],[1,0.5]];portConstraint=eastwest;top=0;left=0;right=0;bottom=0;fontSize=18;" vertex="1" parent="imJbliIBKWfLPpD2nD6v-36">
          <mxGeometry y="109" width="220" height="39" as="geometry" />
        </mxCell>
        <mxCell id="imJbliIBKWfLPpD2nD6v-44" value="" style="shape=partialRectangle;connectable=0;fillColor=none;top=0;left=0;bottom=0;right=0;editable=1;overflow=hidden;whiteSpace=wrap;html=1;fontSize=18;" vertex="1" parent="imJbliIBKWfLPpD2nD6v-43">
          <mxGeometry x="30" width="30" height="39" as="geometry">
            <mxRectangle width="30" height="39" as="alternateBounds" />
          </mxGeometry>
        </mxCell>
        <mxCell id="imJbliIBKWfLPpD2nD6v-45" value="product_id" style="shape=partialRectangle;connectable=0;fillColor=none;top=0;left=0;bottom=0;right=0;align=left;spacingLeft=6;overflow=hidden;whiteSpace=wrap;html=1;fontSize=18;" vertex="1" parent="imJbliIBKWfLPpD2nD6v-43">
          <mxGeometry x="60" width="160" height="39" as="geometry">
            <mxRectangle width="160" height="39" as="alternateBounds" />
          </mxGeometry>
        </mxCell>
        <mxCell id="imJbliIBKWfLPpD2nD6v-46" value="" style="shape=tableRow;horizontal=0;startSize=30;swimlaneHead=0;swimlaneBody=0;fillColor=none;collapsible=0;dropTarget=0;points=[[0,0.5],[1,0.5]];portConstraint=eastwest;top=0;left=0;right=0;bottom=0;fontSize=18;" vertex="1" parent="imJbliIBKWfLPpD2nD6v-36">
          <mxGeometry y="148" width="220" height="39" as="geometry" />
        </mxCell>
        <mxCell id="imJbliIBKWfLPpD2nD6v-47" value="" style="shape=partialRectangle;connectable=0;fillColor=none;top=0;left=0;bottom=0;right=0;editable=1;overflow=hidden;whiteSpace=wrap;html=1;fontSize=18;" vertex="1" parent="imJbliIBKWfLPpD2nD6v-46">
          <mxGeometry x="30" width="30" height="39" as="geometry">
            <mxRectangle width="30" height="39" as="alternateBounds" />
          </mxGeometry>
        </mxCell>
        <mxCell id="imJbliIBKWfLPpD2nD6v-48" value="product_number" style="shape=partialRectangle;connectable=0;fillColor=none;top=0;left=0;bottom=0;right=0;align=left;spacingLeft=6;overflow=hidden;whiteSpace=wrap;html=1;fontSize=18;" vertex="1" parent="imJbliIBKWfLPpD2nD6v-46">
          <mxGeometry x="60" width="160" height="39" as="geometry">
            <mxRectangle width="160" height="39" as="alternateBounds" />
          </mxGeometry>
        </mxCell>
        <mxCell id="imJbliIBKWfLPpD2nD6v-49" style="shape=tableRow;horizontal=0;startSize=30;swimlaneHead=0;swimlaneBody=0;fillColor=none;collapsible=0;dropTarget=0;points=[[0,0.5],[1,0.5]];portConstraint=eastwest;top=0;left=0;right=0;bottom=0;fontSize=18;" vertex="1" parent="imJbliIBKWfLPpD2nD6v-36">
          <mxGeometry y="187" width="220" height="39" as="geometry" />
        </mxCell>
        <mxCell id="imJbliIBKWfLPpD2nD6v-50" style="shape=partialRectangle;connectable=0;fillColor=none;top=0;left=0;bottom=0;right=0;editable=1;overflow=hidden;whiteSpace=wrap;html=1;fontSize=18;" vertex="1" parent="imJbliIBKWfLPpD2nD6v-49">
          <mxGeometry x="30" width="30" height="39" as="geometry">
            <mxRectangle width="30" height="39" as="alternateBounds" />
          </mxGeometry>
        </mxCell>
        <mxCell id="imJbliIBKWfLPpD2nD6v-51" value="product_name" style="shape=partialRectangle;connectable=0;fillColor=none;top=0;left=0;bottom=0;right=0;align=left;spacingLeft=6;overflow=hidden;whiteSpace=wrap;html=1;fontSize=18;" vertex="1" parent="imJbliIBKWfLPpD2nD6v-49">
          <mxGeometry x="60" width="160" height="39" as="geometry">
            <mxRectangle width="160" height="39" as="alternateBounds" />
          </mxGeometry>
        </mxCell>
        <mxCell id="imJbliIBKWfLPpD2nD6v-52" style="shape=tableRow;horizontal=0;startSize=30;swimlaneHead=0;swimlaneBody=0;fillColor=none;collapsible=0;dropTarget=0;points=[[0,0.5],[1,0.5]];portConstraint=eastwest;top=0;left=0;right=0;bottom=0;fontSize=18;" vertex="1" parent="imJbliIBKWfLPpD2nD6v-36">
          <mxGeometry y="226" width="220" height="39" as="geometry" />
        </mxCell>
        <mxCell id="imJbliIBKWfLPpD2nD6v-53" style="shape=partialRectangle;connectable=0;fillColor=none;top=0;left=0;bottom=0;right=0;editable=1;overflow=hidden;whiteSpace=wrap;html=1;fontSize=18;" vertex="1" parent="imJbliIBKWfLPpD2nD6v-52">
          <mxGeometry x="30" width="30" height="39" as="geometry">
            <mxRectangle width="30" height="39" as="alternateBounds" />
          </mxGeometry>
        </mxCell>
        <mxCell id="imJbliIBKWfLPpD2nD6v-54" value="category_id" style="shape=partialRectangle;connectable=0;fillColor=none;top=0;left=0;bottom=0;right=0;align=left;spacingLeft=6;overflow=hidden;whiteSpace=wrap;html=1;fontSize=18;" vertex="1" parent="imJbliIBKWfLPpD2nD6v-52">
          <mxGeometry x="60" width="160" height="39" as="geometry">
            <mxRectangle width="160" height="39" as="alternateBounds" />
          </mxGeometry>
        </mxCell>
        <mxCell id="imJbliIBKWfLPpD2nD6v-55" style="shape=tableRow;horizontal=0;startSize=30;swimlaneHead=0;swimlaneBody=0;fillColor=none;collapsible=0;dropTarget=0;points=[[0,0.5],[1,0.5]];portConstraint=eastwest;top=0;left=0;right=0;bottom=0;fontSize=18;" vertex="1" parent="imJbliIBKWfLPpD2nD6v-36">
          <mxGeometry y="265" width="220" height="39" as="geometry" />
        </mxCell>
        <mxCell id="imJbliIBKWfLPpD2nD6v-56" style="shape=partialRectangle;connectable=0;fillColor=none;top=0;left=0;bottom=0;right=0;editable=1;overflow=hidden;whiteSpace=wrap;html=1;fontSize=18;" vertex="1" parent="imJbliIBKWfLPpD2nD6v-55">
          <mxGeometry x="30" width="30" height="39" as="geometry">
            <mxRectangle width="30" height="39" as="alternateBounds" />
          </mxGeometry>
        </mxCell>
        <mxCell id="imJbliIBKWfLPpD2nD6v-57" value="category" style="shape=partialRectangle;connectable=0;fillColor=none;top=0;left=0;bottom=0;right=0;align=left;spacingLeft=6;overflow=hidden;whiteSpace=wrap;html=1;fontSize=18;" vertex="1" parent="imJbliIBKWfLPpD2nD6v-55">
          <mxGeometry x="60" width="160" height="39" as="geometry">
            <mxRectangle width="160" height="39" as="alternateBounds" />
          </mxGeometry>
        </mxCell>
        <mxCell id="imJbliIBKWfLPpD2nD6v-58" style="shape=tableRow;horizontal=0;startSize=30;swimlaneHead=0;swimlaneBody=0;fillColor=none;collapsible=0;dropTarget=0;points=[[0,0.5],[1,0.5]];portConstraint=eastwest;top=0;left=0;right=0;bottom=0;fontSize=18;" vertex="1" parent="imJbliIBKWfLPpD2nD6v-36">
          <mxGeometry y="304" width="220" height="39" as="geometry" />
        </mxCell>
        <mxCell id="imJbliIBKWfLPpD2nD6v-59" style="shape=partialRectangle;connectable=0;fillColor=none;top=0;left=0;bottom=0;right=0;editable=1;overflow=hidden;whiteSpace=wrap;html=1;fontSize=18;" vertex="1" parent="imJbliIBKWfLPpD2nD6v-58">
          <mxGeometry x="30" width="30" height="39" as="geometry">
            <mxRectangle width="30" height="39" as="alternateBounds" />
          </mxGeometry>
        </mxCell>
        <mxCell id="imJbliIBKWfLPpD2nD6v-60" value="subcategory" style="shape=partialRectangle;connectable=0;fillColor=none;top=0;left=0;bottom=0;right=0;align=left;spacingLeft=6;overflow=hidden;whiteSpace=wrap;html=1;fontSize=18;" vertex="1" parent="imJbliIBKWfLPpD2nD6v-58">
          <mxGeometry x="60" width="160" height="39" as="geometry">
            <mxRectangle width="160" height="39" as="alternateBounds" />
          </mxGeometry>
        </mxCell>
        <mxCell id="imJbliIBKWfLPpD2nD6v-61" style="shape=tableRow;horizontal=0;startSize=30;swimlaneHead=0;swimlaneBody=0;fillColor=none;collapsible=0;dropTarget=0;points=[[0,0.5],[1,0.5]];portConstraint=eastwest;top=0;left=0;right=0;bottom=0;fontSize=18;" vertex="1" parent="imJbliIBKWfLPpD2nD6v-36">
          <mxGeometry y="343" width="220" height="39" as="geometry" />
        </mxCell>
        <mxCell id="imJbliIBKWfLPpD2nD6v-62" style="shape=partialRectangle;connectable=0;fillColor=none;top=0;left=0;bottom=0;right=0;editable=1;overflow=hidden;whiteSpace=wrap;html=1;fontSize=18;" vertex="1" parent="imJbliIBKWfLPpD2nD6v-61">
          <mxGeometry x="30" width="30" height="39" as="geometry">
            <mxRectangle width="30" height="39" as="alternateBounds" />
          </mxGeometry>
        </mxCell>
        <mxCell id="imJbliIBKWfLPpD2nD6v-63" value="maintenance" style="shape=partialRectangle;connectable=0;fillColor=none;top=0;left=0;bottom=0;right=0;align=left;spacingLeft=6;overflow=hidden;whiteSpace=wrap;html=1;fontSize=18;" vertex="1" parent="imJbliIBKWfLPpD2nD6v-61">
          <mxGeometry x="60" width="160" height="39" as="geometry">
            <mxRectangle width="160" height="39" as="alternateBounds" />
          </mxGeometry>
        </mxCell>
        <mxCell id="imJbliIBKWfLPpD2nD6v-64" style="shape=tableRow;horizontal=0;startSize=30;swimlaneHead=0;swimlaneBody=0;fillColor=none;collapsible=0;dropTarget=0;points=[[0,0.5],[1,0.5]];portConstraint=eastwest;top=0;left=0;right=0;bottom=0;fontSize=18;" vertex="1" parent="imJbliIBKWfLPpD2nD6v-36">
          <mxGeometry y="382" width="220" height="20" as="geometry" />
        </mxCell>
        <mxCell id="imJbliIBKWfLPpD2nD6v-65" style="shape=partialRectangle;connectable=0;fillColor=none;top=0;left=0;bottom=0;right=0;editable=1;overflow=hidden;whiteSpace=wrap;html=1;fontSize=18;" vertex="1" parent="imJbliIBKWfLPpD2nD6v-64">
          <mxGeometry x="30" width="30" height="20" as="geometry">
            <mxRectangle width="30" height="20" as="alternateBounds" />
          </mxGeometry>
        </mxCell>
        <mxCell id="imJbliIBKWfLPpD2nD6v-66" value="cost" style="shape=partialRectangle;connectable=0;fillColor=none;top=0;left=0;bottom=0;right=0;align=left;spacingLeft=6;overflow=hidden;whiteSpace=wrap;html=1;fontSize=18;" vertex="1" parent="imJbliIBKWfLPpD2nD6v-64">
          <mxGeometry x="60" width="160" height="20" as="geometry">
            <mxRectangle width="160" height="20" as="alternateBounds" />
          </mxGeometry>
        </mxCell>
        <mxCell id="imJbliIBKWfLPpD2nD6v-67" style="shape=tableRow;horizontal=0;startSize=30;swimlaneHead=0;swimlaneBody=0;fillColor=none;collapsible=0;dropTarget=0;points=[[0,0.5],[1,0.5]];portConstraint=eastwest;top=0;left=0;right=0;bottom=0;fontSize=18;" vertex="1" parent="imJbliIBKWfLPpD2nD6v-36">
          <mxGeometry y="402" width="220" height="38" as="geometry" />
        </mxCell>
        <mxCell id="imJbliIBKWfLPpD2nD6v-68" style="shape=partialRectangle;connectable=0;fillColor=none;top=0;left=0;bottom=0;right=0;editable=1;overflow=hidden;whiteSpace=wrap;html=1;fontSize=18;" vertex="1" parent="imJbliIBKWfLPpD2nD6v-67">
          <mxGeometry x="30" width="30" height="38" as="geometry">
            <mxRectangle width="30" height="38" as="alternateBounds" />
          </mxGeometry>
        </mxCell>
        <mxCell id="imJbliIBKWfLPpD2nD6v-69" value="product_line" style="shape=partialRectangle;connectable=0;fillColor=none;top=0;left=0;bottom=0;right=0;align=left;spacingLeft=6;overflow=hidden;whiteSpace=wrap;html=1;fontSize=18;" vertex="1" parent="imJbliIBKWfLPpD2nD6v-67">
          <mxGeometry x="60" width="160" height="38" as="geometry">
            <mxRectangle width="160" height="38" as="alternateBounds" />
          </mxGeometry>
        </mxCell>
        <mxCell id="imJbliIBKWfLPpD2nD6v-70" style="shape=tableRow;horizontal=0;startSize=30;swimlaneHead=0;swimlaneBody=0;fillColor=none;collapsible=0;dropTarget=0;points=[[0,0.5],[1,0.5]];portConstraint=eastwest;top=0;left=0;right=0;bottom=0;fontSize=18;" vertex="1" parent="imJbliIBKWfLPpD2nD6v-36">
          <mxGeometry y="440" width="220" height="40" as="geometry" />
        </mxCell>
        <mxCell id="imJbliIBKWfLPpD2nD6v-71" style="shape=partialRectangle;connectable=0;fillColor=none;top=0;left=0;bottom=0;right=0;editable=1;overflow=hidden;whiteSpace=wrap;html=1;fontSize=18;" vertex="1" parent="imJbliIBKWfLPpD2nD6v-70">
          <mxGeometry x="30" width="30" height="40" as="geometry">
            <mxRectangle width="30" height="40" as="alternateBounds" />
          </mxGeometry>
        </mxCell>
        <mxCell id="imJbliIBKWfLPpD2nD6v-72" value="start_date" style="shape=partialRectangle;connectable=0;fillColor=none;top=0;left=0;bottom=0;right=0;align=left;spacingLeft=6;overflow=hidden;whiteSpace=wrap;html=1;fontSize=18;" vertex="1" parent="imJbliIBKWfLPpD2nD6v-70">
          <mxGeometry x="60" width="160" height="40" as="geometry">
            <mxRectangle width="160" height="40" as="alternateBounds" />
          </mxGeometry>
        </mxCell>
        <mxCell id="imJbliIBKWfLPpD2nD6v-74" value="gold.dim_products" style="shape=table;startSize=40;container=1;collapsible=1;childLayout=tableLayout;fixedRows=1;rowLines=0;fontStyle=1;align=center;resizeLast=1;html=1;rounded=1;fillColor=#dae8fc;strokeColor=#6c8ebf;fontSize=17;" vertex="1" parent="1">
          <mxGeometry x="315" y="-452.5" width="220" height="390" as="geometry" />
        </mxCell>
        <mxCell id="imJbliIBKWfLPpD2nD6v-78" value="" style="shape=tableRow;horizontal=0;startSize=30;swimlaneHead=0;swimlaneBody=0;fillColor=none;collapsible=0;dropTarget=0;points=[[0,0.5],[1,0.5]];portConstraint=eastwest;top=0;left=0;right=0;bottom=0;fontSize=18;" vertex="1" parent="imJbliIBKWfLPpD2nD6v-74">
          <mxGeometry y="40" width="220" height="39" as="geometry" />
        </mxCell>
        <mxCell id="imJbliIBKWfLPpD2nD6v-79" value="" style="shape=partialRectangle;connectable=0;fillColor=none;top=0;left=0;bottom=0;right=0;editable=1;overflow=hidden;whiteSpace=wrap;html=1;fontSize=18;" vertex="1" parent="imJbliIBKWfLPpD2nD6v-78">
          <mxGeometry x="30" width="30" height="39" as="geometry">
            <mxRectangle width="30" height="39" as="alternateBounds" />
          </mxGeometry>
        </mxCell>
        <mxCell id="imJbliIBKWfLPpD2nD6v-80" value="order_number" style="shape=partialRectangle;connectable=0;fillColor=none;top=0;left=0;bottom=0;right=0;align=left;spacingLeft=6;overflow=hidden;whiteSpace=wrap;html=1;fontSize=18;" vertex="1" parent="imJbliIBKWfLPpD2nD6v-78">
          <mxGeometry x="60" width="160" height="39" as="geometry">
            <mxRectangle width="160" height="39" as="alternateBounds" />
          </mxGeometry>
        </mxCell>
        <mxCell id="imJbliIBKWfLPpD2nD6v-81" value="" style="shape=tableRow;horizontal=0;startSize=30;swimlaneHead=0;swimlaneBody=0;fillColor=none;collapsible=0;dropTarget=0;points=[[0,0.5],[1,0.5]];portConstraint=eastwest;top=0;left=0;right=0;bottom=0;fontSize=18;" vertex="1" parent="imJbliIBKWfLPpD2nD6v-74">
          <mxGeometry y="79" width="220" height="39" as="geometry" />
        </mxCell>
        <mxCell id="imJbliIBKWfLPpD2nD6v-82" value="fk1" style="shape=partialRectangle;connectable=0;fillColor=none;top=0;left=0;bottom=0;right=0;editable=1;overflow=hidden;whiteSpace=wrap;html=1;fontSize=18;" vertex="1" parent="imJbliIBKWfLPpD2nD6v-81">
          <mxGeometry x="30" width="30" height="39" as="geometry">
            <mxRectangle width="30" height="39" as="alternateBounds" />
          </mxGeometry>
        </mxCell>
        <mxCell id="imJbliIBKWfLPpD2nD6v-83" value="product_key" style="shape=partialRectangle;connectable=0;fillColor=none;top=0;left=0;bottom=0;right=0;align=left;spacingLeft=6;overflow=hidden;whiteSpace=wrap;html=1;fontSize=18;" vertex="1" parent="imJbliIBKWfLPpD2nD6v-81">
          <mxGeometry x="60" width="160" height="39" as="geometry">
            <mxRectangle width="160" height="39" as="alternateBounds" />
          </mxGeometry>
        </mxCell>
        <mxCell id="imJbliIBKWfLPpD2nD6v-84" value="" style="shape=tableRow;horizontal=0;startSize=30;swimlaneHead=0;swimlaneBody=0;fillColor=none;collapsible=0;dropTarget=0;points=[[0,0.5],[1,0.5]];portConstraint=eastwest;top=0;left=0;right=0;bottom=0;fontSize=18;" vertex="1" parent="imJbliIBKWfLPpD2nD6v-74">
          <mxGeometry y="118" width="220" height="39" as="geometry" />
        </mxCell>
        <mxCell id="imJbliIBKWfLPpD2nD6v-85" value="fk2" style="shape=partialRectangle;connectable=0;fillColor=none;top=0;left=0;bottom=0;right=0;editable=1;overflow=hidden;whiteSpace=wrap;html=1;fontSize=18;" vertex="1" parent="imJbliIBKWfLPpD2nD6v-84">
          <mxGeometry x="30" width="30" height="39" as="geometry">
            <mxRectangle width="30" height="39" as="alternateBounds" />
          </mxGeometry>
        </mxCell>
        <mxCell id="imJbliIBKWfLPpD2nD6v-86" value="customer_key" style="shape=partialRectangle;connectable=0;fillColor=none;top=0;left=0;bottom=0;right=0;align=left;spacingLeft=6;overflow=hidden;whiteSpace=wrap;html=1;fontSize=18;" vertex="1" parent="imJbliIBKWfLPpD2nD6v-84">
          <mxGeometry x="60" width="160" height="39" as="geometry">
            <mxRectangle width="160" height="39" as="alternateBounds" />
          </mxGeometry>
        </mxCell>
        <mxCell id="imJbliIBKWfLPpD2nD6v-87" style="shape=tableRow;horizontal=0;startSize=30;swimlaneHead=0;swimlaneBody=0;fillColor=none;collapsible=0;dropTarget=0;points=[[0,0.5],[1,0.5]];portConstraint=eastwest;top=0;left=0;right=0;bottom=0;fontSize=18;" vertex="1" parent="imJbliIBKWfLPpD2nD6v-74">
          <mxGeometry y="157" width="220" height="39" as="geometry" />
        </mxCell>
        <mxCell id="imJbliIBKWfLPpD2nD6v-88" style="shape=partialRectangle;connectable=0;fillColor=none;top=0;left=0;bottom=0;right=0;editable=1;overflow=hidden;whiteSpace=wrap;html=1;fontSize=18;" vertex="1" parent="imJbliIBKWfLPpD2nD6v-87">
          <mxGeometry x="30" width="30" height="39" as="geometry">
            <mxRectangle width="30" height="39" as="alternateBounds" />
          </mxGeometry>
        </mxCell>
        <mxCell id="imJbliIBKWfLPpD2nD6v-89" value="order_date" style="shape=partialRectangle;connectable=0;fillColor=none;top=0;left=0;bottom=0;right=0;align=left;spacingLeft=6;overflow=hidden;whiteSpace=wrap;html=1;fontSize=18;" vertex="1" parent="imJbliIBKWfLPpD2nD6v-87">
          <mxGeometry x="60" width="160" height="39" as="geometry">
            <mxRectangle width="160" height="39" as="alternateBounds" />
          </mxGeometry>
        </mxCell>
        <mxCell id="imJbliIBKWfLPpD2nD6v-90" style="shape=tableRow;horizontal=0;startSize=30;swimlaneHead=0;swimlaneBody=0;fillColor=none;collapsible=0;dropTarget=0;points=[[0,0.5],[1,0.5]];portConstraint=eastwest;top=0;left=0;right=0;bottom=0;fontSize=18;" vertex="1" parent="imJbliIBKWfLPpD2nD6v-74">
          <mxGeometry y="196" width="220" height="39" as="geometry" />
        </mxCell>
        <mxCell id="imJbliIBKWfLPpD2nD6v-91" style="shape=partialRectangle;connectable=0;fillColor=none;top=0;left=0;bottom=0;right=0;editable=1;overflow=hidden;whiteSpace=wrap;html=1;fontSize=18;" vertex="1" parent="imJbliIBKWfLPpD2nD6v-90">
          <mxGeometry x="30" width="30" height="39" as="geometry">
            <mxRectangle width="30" height="39" as="alternateBounds" />
          </mxGeometry>
        </mxCell>
        <mxCell id="imJbliIBKWfLPpD2nD6v-92" value="shipping_date" style="shape=partialRectangle;connectable=0;fillColor=none;top=0;left=0;bottom=0;right=0;align=left;spacingLeft=6;overflow=hidden;whiteSpace=wrap;html=1;fontSize=18;" vertex="1" parent="imJbliIBKWfLPpD2nD6v-90">
          <mxGeometry x="60" width="160" height="39" as="geometry">
            <mxRectangle width="160" height="39" as="alternateBounds" />
          </mxGeometry>
        </mxCell>
        <mxCell id="imJbliIBKWfLPpD2nD6v-93" style="shape=tableRow;horizontal=0;startSize=30;swimlaneHead=0;swimlaneBody=0;fillColor=none;collapsible=0;dropTarget=0;points=[[0,0.5],[1,0.5]];portConstraint=eastwest;top=0;left=0;right=0;bottom=0;fontSize=18;" vertex="1" parent="imJbliIBKWfLPpD2nD6v-74">
          <mxGeometry y="235" width="220" height="39" as="geometry" />
        </mxCell>
        <mxCell id="imJbliIBKWfLPpD2nD6v-94" style="shape=partialRectangle;connectable=0;fillColor=none;top=0;left=0;bottom=0;right=0;editable=1;overflow=hidden;whiteSpace=wrap;html=1;fontSize=18;" vertex="1" parent="imJbliIBKWfLPpD2nD6v-93">
          <mxGeometry x="30" width="30" height="39" as="geometry">
            <mxRectangle width="30" height="39" as="alternateBounds" />
          </mxGeometry>
        </mxCell>
        <mxCell id="imJbliIBKWfLPpD2nD6v-95" value="due_date" style="shape=partialRectangle;connectable=0;fillColor=none;top=0;left=0;bottom=0;right=0;align=left;spacingLeft=6;overflow=hidden;whiteSpace=wrap;html=1;fontSize=18;" vertex="1" parent="imJbliIBKWfLPpD2nD6v-93">
          <mxGeometry x="60" width="160" height="39" as="geometry">
            <mxRectangle width="160" height="39" as="alternateBounds" />
          </mxGeometry>
        </mxCell>
        <mxCell id="imJbliIBKWfLPpD2nD6v-96" style="shape=tableRow;horizontal=0;startSize=30;swimlaneHead=0;swimlaneBody=0;fillColor=none;collapsible=0;dropTarget=0;points=[[0,0.5],[1,0.5]];portConstraint=eastwest;top=0;left=0;right=0;bottom=0;fontSize=18;" vertex="1" parent="imJbliIBKWfLPpD2nD6v-74">
          <mxGeometry y="274" width="220" height="39" as="geometry" />
        </mxCell>
        <mxCell id="imJbliIBKWfLPpD2nD6v-97" style="shape=partialRectangle;connectable=0;fillColor=none;top=0;left=0;bottom=0;right=0;editable=1;overflow=hidden;whiteSpace=wrap;html=1;fontSize=18;" vertex="1" parent="imJbliIBKWfLPpD2nD6v-96">
          <mxGeometry x="30" width="30" height="39" as="geometry">
            <mxRectangle width="30" height="39" as="alternateBounds" />
          </mxGeometry>
        </mxCell>
        <mxCell id="imJbliIBKWfLPpD2nD6v-98" value="sales_amount" style="shape=partialRectangle;connectable=0;fillColor=none;top=0;left=0;bottom=0;right=0;align=left;spacingLeft=6;overflow=hidden;whiteSpace=wrap;html=1;fontSize=18;" vertex="1" parent="imJbliIBKWfLPpD2nD6v-96">
          <mxGeometry x="60" width="160" height="39" as="geometry">
            <mxRectangle width="160" height="39" as="alternateBounds" />
          </mxGeometry>
        </mxCell>
        <mxCell id="imJbliIBKWfLPpD2nD6v-99" style="shape=tableRow;horizontal=0;startSize=30;swimlaneHead=0;swimlaneBody=0;fillColor=none;collapsible=0;dropTarget=0;points=[[0,0.5],[1,0.5]];portConstraint=eastwest;top=0;left=0;right=0;bottom=0;fontSize=18;" vertex="1" parent="imJbliIBKWfLPpD2nD6v-74">
          <mxGeometry y="313" width="220" height="39" as="geometry" />
        </mxCell>
        <mxCell id="imJbliIBKWfLPpD2nD6v-100" style="shape=partialRectangle;connectable=0;fillColor=none;top=0;left=0;bottom=0;right=0;editable=1;overflow=hidden;whiteSpace=wrap;html=1;fontSize=18;" vertex="1" parent="imJbliIBKWfLPpD2nD6v-99">
          <mxGeometry x="30" width="30" height="39" as="geometry">
            <mxRectangle width="30" height="39" as="alternateBounds" />
          </mxGeometry>
        </mxCell>
        <mxCell id="imJbliIBKWfLPpD2nD6v-101" value="quantity" style="shape=partialRectangle;connectable=0;fillColor=none;top=0;left=0;bottom=0;right=0;align=left;spacingLeft=6;overflow=hidden;whiteSpace=wrap;html=1;fontSize=18;" vertex="1" parent="imJbliIBKWfLPpD2nD6v-99">
          <mxGeometry x="60" width="160" height="39" as="geometry">
            <mxRectangle width="160" height="39" as="alternateBounds" />
          </mxGeometry>
        </mxCell>
        <mxCell id="imJbliIBKWfLPpD2nD6v-102" style="shape=tableRow;horizontal=0;startSize=30;swimlaneHead=0;swimlaneBody=0;fillColor=none;collapsible=0;dropTarget=0;points=[[0,0.5],[1,0.5]];portConstraint=eastwest;top=0;left=0;right=0;bottom=0;fontSize=18;" vertex="1" parent="imJbliIBKWfLPpD2nD6v-74">
          <mxGeometry y="352" width="220" height="28" as="geometry" />
        </mxCell>
        <mxCell id="imJbliIBKWfLPpD2nD6v-103" style="shape=partialRectangle;connectable=0;fillColor=none;top=0;left=0;bottom=0;right=0;editable=1;overflow=hidden;whiteSpace=wrap;html=1;fontSize=18;" vertex="1" parent="imJbliIBKWfLPpD2nD6v-102">
          <mxGeometry x="30" width="30" height="28" as="geometry">
            <mxRectangle width="30" height="28" as="alternateBounds" />
          </mxGeometry>
        </mxCell>
        <mxCell id="imJbliIBKWfLPpD2nD6v-104" value="price" style="shape=partialRectangle;connectable=0;fillColor=none;top=0;left=0;bottom=0;right=0;align=left;spacingLeft=6;overflow=hidden;whiteSpace=wrap;html=1;fontSize=18;" vertex="1" parent="imJbliIBKWfLPpD2nD6v-102">
          <mxGeometry x="60" width="160" height="28" as="geometry">
            <mxRectangle width="160" height="28" as="alternateBounds" />
          </mxGeometry>
        </mxCell>
        <mxCell id="imJbliIBKWfLPpD2nD6v-112" value="" style="edgeStyle=entityRelationEdgeStyle;fontSize=12;html=1;endArrow=ERzeroToMany;startArrow=ERmandOne;rounded=0;exitX=1;exitY=0.5;exitDx=0;exitDy=0;entryX=0;entryY=0.5;entryDx=0;entryDy=0;" edge="1" parent="1" source="imJbliIBKWfLPpD2nD6v-3" target="imJbliIBKWfLPpD2nD6v-84">
          <mxGeometry width="100" height="100" relative="1" as="geometry">
            <mxPoint x="255" y="-340" as="sourcePoint" />
            <mxPoint x="355" y="-440" as="targetPoint" />
            <Array as="points">
              <mxPoint x="175" y="-470" />
              <mxPoint x="350" y="-315" />
              <mxPoint x="330" y="-300" />
            </Array>
          </mxGeometry>
        </mxCell>
        <mxCell id="imJbliIBKWfLPpD2nD6v-113" value="" style="edgeStyle=entityRelationEdgeStyle;fontSize=12;html=1;endArrow=ERzeroToMany;startArrow=ERmandOne;rounded=0;entryX=1;entryY=0.5;entryDx=0;entryDy=0;" edge="1" parent="1" source="imJbliIBKWfLPpD2nD6v-37" target="imJbliIBKWfLPpD2nD6v-81">
          <mxGeometry width="100" height="100" relative="1" as="geometry">
            <mxPoint x="550" y="-405" as="sourcePoint" />
            <mxPoint x="610" y="-305" as="targetPoint" />
            <Array as="points">
              <mxPoint x="470" y="-460" />
              <mxPoint x="645" y="-305" />
              <mxPoint x="625" y="-290" />
            </Array>
          </mxGeometry>
        </mxCell>
      </root>
    </mxGraphModel>
  </diagram>
</mxfile>
